<svg xmlns="http://www.w3.org/2000/svg" width="2400" height="2224"><path fill="#129D1B" d="M2361.99 3.715c2.193 1.402 3.299 2.661 4.787 4.785l1.538 2.163 1.623 2.337c1.15 1.63 2.301 3.258 3.453 4.887l1.79 2.548a545.195 545.195 0 0 0 5.49 7.585c.59.803 1.18 1.607 1.786 2.435 1.132 1.542 2.266 3.08 3.404 4.617l1.557 2.135 1.368 1.859c1.394 2.22 2.305 4.48 3.214 6.934a7508.663 7508.663 0 0 1-8 7.563l-2.254 2.134a415.269 415.269 0 0 1-12.892 11.684c-2.751 2.403-5.43 4.881-8.104 7.369-1.133 1.05-2.265 2.1-3.398 3.148l-1.703 1.578c-2.499 2.31-5.012 4.603-7.524 6.899-5.221 4.775-10.393 9.602-15.56 14.435a1351.563 1351.563 0 0 1-11.502 10.627c-6.035 5.517-11.996 11.11-17.954 16.708a2153.765 2153.765 0 0 1-8.218 7.68l-2.013 1.871a2920.52 2920.52 0 0 1-3.743 3.473 324.585 324.585 0 0 0-10.488 10.217c-1.717 1.682-3.502 3.247-5.334 4.802-4.132 3.554-7.947 7.385-11.75 11.285a137.002 137.002 0 0 1-8.407 7.87c-4.44 3.841-8.545 7.97-12.656 12.157-7.894 8.038-7.894 8.038-12.187 11.688-6.28 5.403-11.992 11.425-17.813 17.312a4293.307 4293.307 0 0 1-7.094 7.156l-1.588 1.614a139.576 139.576 0 0 1-8.421 7.835c-4.878 4.253-9.438 8.796-14.007 13.375l-2.806 2.802a6971.737 6971.737 0 0 0-7.55 7.55c-2.646 2.648-5.294 5.294-7.942 7.94-4.444 4.442-8.886 8.887-13.327 13.332a20322.522 20322.522 0 0 1-15.36 15.36c-4.417 4.411-8.832 8.825-13.245 13.24-2.627 2.63-5.256 5.259-7.886 7.885-2.934 2.931-5.864 5.866-8.794 8.801l-2.606 2.6c-4.287 4.303-8.431 8.668-12.376 13.288-2.41 2.77-5.008 5.337-7.623 7.91l-1.668 1.656c-2.315 2.299-4.635 4.59-6.955 6.884-5.733 5.671-11.42 11.302-16.65 17.448-3.65 4.157-7.694 7.952-11.641 11.824a205.83 205.83 0 0 0-11.309 12.125c-2.427 2.754-5.024 5.314-7.652 7.875-3.923 3.87-7.654 7.808-11.227 12.008-2.965 3.331-6.183 6.41-9.355 9.543-2.724 2.76-5.253 5.64-7.773 8.586-2.188 2.478-4.538 4.767-6.895 7.082-1.832 1.865-3.544 3.8-5.25 5.781-2.753 3.196-5.646 6.172-8.656 9.125-1.78 1.81-3.446 3.676-5.102 5.602-3.606 4.147-7.34 8.156-11.117 12.148-4.859 5.158-9.668 10.35-14.387 15.637A843.184 843.184 0 0 1 1936 499.5c-4.277 4.62-8.513 9.275-12.715 13.965a1146.56 1146.56 0 0 1-7.91 8.66 541.99 541.99 0 0 0-10.566 11.816c-2.24 2.549-4.523 5.053-6.809 7.559a615.583 615.583 0 0 0-10.164 11.418c-2.202 2.497-4.457 4.943-6.711 7.394a223.767 223.767 0 0 0-9.437 11c-4.075 5.056-8.44 9.77-12.888 14.494-4.042 4.316-7.796 8.799-11.491 13.417-2.662 3.201-5.464 6.24-8.309 9.277-4.48 4.783-8.685 9.708-12.79 14.82-2.32 2.813-4.74 5.498-7.21 8.18-4.114 4.47-7.97 9.09-11.785 13.816-2.171 2.631-4.417 5.163-6.715 7.684-3.822 4.197-7.415 8.537-10.984 12.95-2.945 3.57-5.973 7.062-9.016 10.55a562.964 562.964 0 0 0-13.191 15.691c-2.722 3.312-5.51 6.562-8.309 9.809a675.858 675.858 0 0 0-12.719 15.219c-2.58 3.145-5.207 6.246-7.843 9.343a511.862 511.862 0 0 0-11.356 13.86c-2.413 2.988-4.9 5.908-7.394 8.828a386.61 386.61 0 0 0-11 13.5 678.45 678.45 0 0 1-12.563 15.625l-1.786 2.16-1.788 2.164c-7.915 9.576-15.74 19.218-23.385 29.01-3.52 4.498-7.115 8.931-10.728 13.354a676.194 676.194 0 0 0-13.91 17.66c-2.788 3.636-5.656 7.207-8.528 10.777a820.036 820.036 0 0 0-12.281 15.656c-3.041 3.974-6.121 7.915-9.219 11.844a1748.406 1748.406 0 0 0-14.266 18.391c-2.075 2.705-4.155 5.407-6.234 8.109l-2.523 3.281a6660.663 6660.663 0 0 1-4.766 6.188c-11.116 14.425-22.15 28.911-33.054 43.497-4.616 6.167-9.287 12.292-13.97 18.409-4.812 6.293-9.545 12.624-14.109 19.1-3.05 4.32-6.204 8.555-9.39 12.775-4.817 6.382-9.524 12.835-14.191 19.327-3.96 5.503-7.967 10.97-11.997 16.423-6.19 8.378-12.302 16.808-18.387 25.262a3307.41 3307.41 0 0 1-4.894 6.77 2484.01 2484.01 0 0 0-20.244 28.372c-1.464 2.08-2.932 4.16-4.4 6.237a5846.633 5846.633 0 0 0-17.857 25.408c-3.785 5.412-7.59 10.81-11.405 16.201a1398.84 1398.84 0 0 0-12.399 17.827c-2.68 3.913-5.379 7.81-8.098 11.696a1559.14 1559.14 0 0 0-22.343 32.789 832.935 832.935 0 0 1-13.16 19.188c-11.337 16.125-22.02 32.7-32.833 49.178-3.802 5.79-7.63 11.563-11.48 17.322-4.352 6.516-8.647 13.068-12.937 19.625l-1.245 1.901a4665.775 4665.775 0 0 0-18.085 27.814c-1.28 1.981-2.562 3.96-3.846 5.937-6.925 10.669-13.76 21.393-20.58 32.13a9164.96 9164.96 0 0 1-5.389 8.468A6648.14 6648.14 0 0 0 1200 1479l-1.846 2.99a6430.706 6430.706 0 0 0-27.923 45.682c-2.536 4.185-5.08 8.367-7.626 12.547a3028.546 3028.546 0 0 0-23.92 39.922c-2.465 4.182-4.944 8.355-7.422 12.53-9.146 15.408-18.218 30.86-27.263 46.329l-1.867 3.191c-17.631 30.142-35.108 60.38-52.128 90.872a1872.439 1872.439 0 0 1-10.942 19.312c-6.812 11.875-13.445 23.848-20.069 35.828l-3.013 5.443c-7.487 13.524-14.927 27.071-22.259 40.681-3.651 6.756-7.414 13.442-11.222 20.11-5.124 8.986-9.959 18.097-14.693 27.293a859.643 859.643 0 0 1-10.87 20.395c-4.603 8.372-9.056 16.813-13.45 25.296a845.52 845.52 0 0 1-10.112 18.829c-6.604 11.989-12.808 24.18-19.046 36.36l-1.145 2.238-1.127 2.2a1253.264 1253.264 0 0 1-8.12 15.577c-6.29 11.876-12.408 23.842-18.551 35.795a4664.963 4664.963 0 0 1-6.532 12.66c-12.865 24.836-25.37 49.85-37.845 74.886-3.305 6.63-6.619 13.256-9.933 19.882l-5.472 10.945a1722668.798 1722668.798 0 0 1-3.487 6.974c-10.04 20.077-20.078 40.155-30.117 60.233-4.138.145-8.275.25-12.416.32-1.405.028-2.81.068-4.215.118-13.168.463-13.168.463-17.834-3.142-2.614-2.532-4.592-5.435-6.458-8.547-1.645-2.672-3.674-4.987-5.702-7.374l-2.164-2.695c-2.32-2.813-4.742-5.498-7.211-8.18-4.114-4.47-7.97-9.09-11.785-13.816-2.171-2.631-4.417-5.163-6.715-7.684a227.993 227.993 0 0 1-8.937-10.438c-3.861-4.773-7.937-9.296-12.094-13.812-3.198-3.562-6.183-7.276-9.188-11-2.348-2.831-4.79-5.544-7.281-8.25-4.114-4.47-7.97-9.09-11.785-13.816-2.171-2.631-4.417-5.163-6.715-7.684a227.993 227.993 0 0 1-8.937-10.438c-3.861-4.773-7.937-9.296-12.094-13.812-3.198-3.562-6.183-7.276-9.188-11-2.348-2.831-4.79-5.544-7.281-8.25-4.114-4.47-7.97-9.09-11.785-13.816-2.171-2.631-4.417-5.163-6.715-7.684a227.993 227.993 0 0 1-8.937-10.438c-3.861-4.773-7.937-9.296-12.094-13.812-3.198-3.562-6.183-7.276-9.188-11-2.348-2.831-4.79-5.544-7.281-8.25-4.094-4.447-7.924-9.047-11.719-13.75-2.348-2.831-4.79-5.544-7.281-8.25-4.114-4.47-7.97-9.09-11.785-13.816-2.171-2.631-4.417-5.163-6.715-7.684a227.993 227.993 0 0 1-8.937-10.438c-3.861-4.773-7.937-9.296-12.094-13.812-3.198-3.562-6.183-7.276-9.188-11-2.348-2.831-4.79-5.544-7.281-8.25-4.114-4.47-7.97-9.09-11.785-13.816-2.171-2.631-4.417-5.163-6.715-7.684a227.993 227.993 0 0 1-8.937-10.438c-3.861-4.773-7.937-9.296-12.094-13.812-3.198-3.562-6.183-7.276-9.188-11-2.348-2.831-4.79-5.544-7.281-8.25-4.094-4.447-7.924-9.047-11.719-13.75-2.348-2.831-4.79-5.544-7.281-8.25-4.114-4.47-7.97-9.09-11.785-13.816-2.171-2.631-4.417-5.163-6.715-7.684a227.993 227.993 0 0 1-8.937-10.438c-3.861-4.773-7.937-9.296-12.094-13.812-3.198-3.562-6.183-7.276-9.188-11-2.348-2.831-4.79-5.544-7.281-8.25-4.114-4.47-7.97-9.09-11.785-13.816-2.171-2.631-4.417-5.163-6.715-7.684a227.993 227.993 0 0 1-8.937-10.438c-3.861-4.773-7.937-9.296-12.094-13.812-3.198-3.562-6.183-7.276-9.188-11-2.348-2.831-4.79-5.544-7.281-8.25-4.094-4.447-7.924-9.047-11.719-13.75-2.348-2.831-4.79-5.544-7.281-8.25-4.114-4.47-7.97-9.09-11.785-13.816-2.171-2.631-4.417-5.163-6.715-7.684a227.993 227.993 0 0 1-8.937-10.438c-3.861-4.773-7.937-9.296-12.094-13.812-3.198-3.562-6.183-7.276-9.188-11-2.348-2.831-4.79-5.544-7.281-8.25-4.114-4.47-7.97-9.09-11.785-13.816-2.171-2.631-4.417-5.163-6.715-7.684a227.993 227.993 0 0 1-8.937-10.438c-3.861-4.773-7.937-9.296-12.094-13.812-3.198-3.562-6.183-7.276-9.188-11-2.348-2.831-4.79-5.544-7.281-8.25-4.094-4.447-7.924-9.047-11.719-13.75-2.348-2.831-4.79-5.544-7.281-8.25-4.114-4.47-7.97-9.09-11.785-13.816-2.171-2.631-4.417-5.163-6.715-7.684a227.993 227.993 0 0 1-8.937-10.438c-3.861-4.773-7.937-9.296-12.094-13.812-3.198-3.562-6.183-7.276-9.188-11-2.348-2.831-4.79-5.544-7.281-8.25-4.114-4.47-7.97-9.09-11.785-13.816-2.171-2.631-4.417-5.163-6.715-7.684a227.993 227.993 0 0 1-8.937-10.438c-3.861-4.773-7.937-9.296-12.094-13.812-3.198-3.562-6.183-7.276-9.188-11-2.348-2.831-4.79-5.544-7.281-8.25-4.094-4.447-7.924-9.047-11.719-13.75-2.348-2.831-4.79-5.544-7.281-8.25-4.897-5.323-9.461-10.872-14-16.5a1141.003 1141.003 0 0 0-5-6c1.47-3.245 3.314-5.806 5.563-8.563l2.18-2.683L16 1333l2.07-2.535a4325.74 4325.74 0 0 1 4.344-5.305c5.218-6.368 10.397-12.768 15.586-19.16 3.716 1.402 7.12 3.084 10.586 5.02l3.284 1.828 3.505 1.965 3.646 2.034a5506.996 5506.996 0 0 1 31.168 17.56c4.768 2.702 9.54 5.397 14.311 8.093l5.75 3.25 2.875 1.625 103.5 58.5 5.754 3.252c4.768 2.695 9.535 5.39 14.3 8.088a6444.38 6444.38 0 0 0 29.946 16.848 2637.554 2637.554 0 0 1 25.422 14.398A2182.04 2182.04 0 0 0 312.5 1460a2569.728 2569.728 0 0 1 25.547 14.46c6.793 3.892 13.618 7.723 20.453 11.54a2569.728 2569.728 0 0 1 25.547 14.46c6.793 3.892 13.618 7.723 20.453 11.54a2569.728 2569.728 0 0 1 25.547 14.46c6.793 3.892 13.618 7.723 20.453 11.54a2569.728 2569.728 0 0 1 25.547 14.46c6.793 3.892 13.618 7.723 20.453 11.54a2569.728 2569.728 0 0 1 25.547 14.46c6.793 3.892 13.618 7.723 20.453 11.54a2569.728 2569.728 0 0 1 25.547 14.46c6.793 3.892 13.618 7.723 20.453 11.54 8.534 4.766 17.038 9.58 25.516 14.443 8.152 4.669 16.347 9.258 24.548 13.838l3.022 1.688 2.847 1.578c1.585.897 3.157 1.82 4.705 2.781 3.202 2.112 3.202 2.112 6.891 2.467 2.382-.96 3.104-1.862 4.53-3.979l1.398-2.033 1.48-2.22c1.072-1.564 2.145-3.126 3.22-4.688l1.671-2.45c2.642-3.832 5.374-7.597 8.11-11.362l3.28-4.532 1.645-2.27c1.622-2.24 3.24-4.485 4.856-6.73a2520.359 2520.359 0 0 1 18.552-25.427c3.928-5.32 7.809-10.671 11.667-16.042 5.211-7.247 10.537-14.403 15.908-21.533a1654.934 1654.934 0 0 0 12.592-16.966c5.605-7.64 11.328-15.185 17.088-22.71 4.512-5.905 8.954-11.859 13.349-17.853a873.645 873.645 0 0 1 13.879-18.445c3.547-4.58 7.05-9.195 10.559-13.805l4.167-5.473 2.057-2.7c7.933-10.414 15.897-20.802 23.944-31.129A2259.5 2259.5 0 0 0 840 1407.5c9.475-12.338 19.054-24.596 28.678-36.819 1.344-1.708 2.685-3.419 4.025-5.13a2227.403 2227.403 0 0 1 15.818-19.947c3.334-4.16 6.634-8.343 9.917-12.542 4.505-5.759 9.104-11.438 13.728-17.103a758.743 758.743 0 0 0 10.272-12.897c4.751-6.092 9.646-12.06 14.57-18.013a927.47 927.47 0 0 0 11.156-13.752c2.738-3.426 5.524-6.812 8.305-10.203 2.37-2.896 4.729-5.8 7.085-8.706 9.788-12.067 19.615-24.099 29.687-35.93a346.647 346.647 0 0 0 7.697-9.396c3.734-4.713 7.64-9.264 11.567-13.817 3.817-4.433 7.537-8.936 11.225-13.475 3.896-4.754 7.883-9.43 11.863-14.113 2.306-2.716 4.606-5.437 6.907-8.157l2.754-3.254c1.821-2.153 3.642-4.306 5.46-6.46a3554.301 3554.301 0 0 1 18.77-22.02c2.007-2.338 4.013-4.678 6.018-7.018l4.502-5.252c1.988-2.32 3.975-4.64 5.96-6.96 19.386-22.652 19.386-22.652 26.786-30.786 2.97-3.271 5.793-6.62 8.563-10.063 4.412-5.456 9.132-10.573 13.914-15.703 4.27-4.581 8.357-9.312 12.406-14.09 5.803-6.832 11.724-13.512 17.853-20.056a366.214 366.214 0 0 0 9.85-10.924c3.497-4.022 7.093-7.958 10.664-11.914l4.5-5 2.258-2.508c1.475-1.64 2.949-3.28 4.422-4.922a1700.235 1700.235 0 0 1 13.88-15.256 344.093 344.093 0 0 0 7.253-8.126c4.017-4.637 8.238-9.083 12.432-13.558A609.872 609.872 0 0 0 1240.5 933c4.31-4.821 8.72-9.543 13.139-14.264 3.783-4.042 7.55-8.1 11.299-12.173 6.324-6.867 12.712-13.671 19.104-20.475 2.003-2.136 4.002-4.276 6.001-6.416l2.009-2.15c1.255-1.342 2.509-2.686 3.762-4.031 3.46-3.7 6.982-7.318 10.596-10.867 1.653-1.689 3.189-3.445 4.715-5.249 3.77-4.383 7.86-8.418 11.993-12.456 2.87-2.825 5.6-5.707 8.226-8.763 4.7-5.44 9.86-10.407 14.984-15.445l2.297-2.274 2.04-2.003c1.936-2.018 3.764-4.07 5.589-6.188 3.83-4.406 7.908-8.518 12.059-12.621l2.34-2.33c3.27-3.254 6.547-6.502 9.823-9.75a7600.94 7600.94 0 0 0 7.212-7.17l2.21-2.185c3.23-3.215 6.37-6.449 9.33-9.914 5.16-5.983 10.836-11.483 16.424-17.061l3.68-3.682c2.559-2.561 5.12-5.12 7.682-7.678 3.266-3.26 6.527-6.524 9.787-9.79a8738.98 8738.98 0 0 1 7.59-7.59 4076.74 4076.74 0 0 0 3.606-3.608c5.594-5.603 11.182-11.148 17.206-16.293 3.251-2.848 6.262-5.937 9.297-9.011l2.06-2.073c2.15-2.16 4.295-4.325 6.44-6.49 2.83-2.857 5.664-5.71 8.5-8.563l1.92-1.945c3.793-3.813 7.714-7.407 11.786-10.922 2.168-1.897 4.212-3.89 6.232-5.945l2.273-2.297L1516 651c4.897-4.98 9.831-9.799 15.129-14.352 2.93-2.58 5.644-5.357 8.371-8.148 4.07-4.122 8.19-8.077 12.61-11.828 3.032-2.682 5.825-5.6 8.667-8.48 2.65-2.613 5.435-5.025 8.258-7.446 2.699-2.398 5.208-4.962 7.715-7.558 1.944-1.89 3.93-3.67 5.977-5.446 4.327-3.758 8.492-7.67 12.648-11.617 5.284-4.997 10.6-9.944 16.031-14.781 3.446-3.114 6.83-6.292 10.219-9.469 4.367-4.092 8.752-8.136 13.29-12.04 2.909-2.56 5.743-5.2 8.585-7.835 4.106-3.807 8.241-7.563 12.477-11.227 2.538-2.224 5.03-4.498 7.523-6.773 3.79-3.456 7.61-6.868 11.484-10.23 2.302-2.021 4.564-4.083 6.829-6.145 3.42-3.091 6.907-6.05 10.5-8.938 4.813-3.89 9.335-8.016 13.848-12.243 4.213-3.923 8.603-7.563 13.093-11.167 3.01-2.495 5.885-5.115 8.746-7.777 4.632-4.31 9.421-8.35 14.352-12.32 2.62-2.158 5.14-4.393 7.648-6.68 4.197-3.822 8.537-7.415 12.95-10.984 3.57-2.945 7.062-5.973 10.55-9.016a569.526 569.526 0 0 1 15.758-13.258c3.112-2.545 6.18-5.138 9.242-7.742a907.382 907.382 0 0 1 14.422-11.988A3010.87 3010.87 0 0 0 1824.5 376c33.788-27.838 33.788-27.838 48.656-39.473l3.469-2.714 1.786-1.398c4.536-3.56 9.004-7.197 13.464-10.853 5.95-4.869 12.022-9.535 18.197-14.115a426.095 426.095 0 0 0 13.366-10.385c7.371-5.948 14.881-11.703 22.422-17.434 2.776-2.112 5.546-4.232 8.316-6.353 2.103-1.61 4.208-3.218 6.312-4.826 3.21-2.451 6.414-4.908 9.617-7.367 9.057-6.94 18.162-13.785 27.438-20.43A725.164 725.164 0 0 0 2012 230c7.822-5.901 15.756-11.638 23.713-17.354 2.28-1.641 4.556-3.287 6.83-4.935 9.41-6.818 18.87-13.56 28.374-20.245a2752.3 2752.3 0 0 0 6.118-4.321c47.613-33.711 96.076-66.296 145.369-97.501 2.487-1.575 4.973-3.152 7.46-4.73a2768.696 2768.696 0 0 1 88.666-53.892c4.445-2.59 8.885-5.187 13.325-7.785a3537.88 3537.88 0 0 1 8.907-5.178 486.271 486.271 0 0 0 9.695-5.774l1.979-1.191c1.658-1 3.307-2.015 4.955-3.032C2360 3 2360 3 2361.99 3.716Z"/><path d="M2361.99 3.715c2.193 1.402 3.299 2.661 4.787 4.785l1.538 2.163 1.623 2.337c1.15 1.63 2.301 3.258 3.453 4.887l1.79 2.548a545.195 545.195 0 0 0 5.49 7.585c.59.803 1.18 1.607 1.786 2.435 1.132 1.542 2.266 3.08 3.404 4.617l1.557 2.135 1.368 1.859c1.394 2.22 2.305 4.48 3.214 6.934a7508.663 7508.663 0 0 1-8 7.563l-2.254 2.134a415.269 415.269 0 0 1-12.892 11.684c-2.751 2.403-5.43 4.881-8.104 7.369-1.133 1.05-2.265 2.1-3.398 3.148l-1.703 1.578c-2.499 2.31-5.012 4.603-7.524 6.899-5.221 4.775-10.393 9.602-15.56 14.435a1351.563 1351.563 0 0 1-11.502 10.627c-6.035 5.517-11.996 11.11-17.954 16.708a2153.765 2153.765 0 0 1-8.218 7.68l-2.013 1.871a2920.52 2920.52 0 0 1-3.743 3.473 324.585 324.585 0 0 0-10.488 10.217c-1.717 1.682-3.502 3.247-5.334 4.802-4.132 3.554-7.947 7.385-11.75 11.285a137.002 137.002 0 0 1-8.407 7.87c-4.44 3.841-8.545 7.97-12.656 12.157-7.894 8.038-7.894 8.038-12.187 11.688-6.28 5.403-11.992 11.425-17.813 17.312a4293.307 4293.307 0 0 1-7.094 7.156l-1.588 1.614a139.576 139.576 0 0 1-8.421 7.835c-4.878 4.253-9.438 8.796-14.007 13.375l-2.806 2.802a6971.737 6971.737 0 0 0-7.55 7.55c-2.646 2.648-5.294 5.294-7.942 7.94-4.444 4.442-8.886 8.887-13.327 13.332a20322.522 20322.522 0 0 1-15.36 15.36c-4.417 4.411-8.832 8.825-13.245 13.24-2.627 2.63-5.256 5.259-7.886 7.885-2.934 2.931-5.864 5.866-8.794 8.801l-2.606 2.6c-4.287 4.303-8.431 8.668-12.376 13.288-2.41 2.77-5.008 5.337-7.623 7.91l-1.668 1.656c-2.315 2.299-4.635 4.59-6.955 6.884-5.733 5.671-11.42 11.302-16.65 17.448-3.65 4.157-7.694 7.952-11.641 11.824a205.83 205.83 0 0 0-11.309 12.125c-2.427 2.754-5.024 5.314-7.652 7.875-3.923 3.87-7.654 7.808-11.227 12.008-2.965 3.331-6.183 6.41-9.355 9.543-2.724 2.76-5.253 5.64-7.773 8.586-2.188 2.478-4.538 4.767-6.895 7.082-1.832 1.865-3.544 3.8-5.25 5.781-2.753 3.196-5.646 6.172-8.656 9.125-1.78 1.81-3.446 3.676-5.102 5.602-3.606 4.147-7.34 8.156-11.117 12.148-4.859 5.158-9.668 10.35-14.387 15.637A843.184 843.184 0 0 1 1936 499.5c-4.277 4.62-8.513 9.275-12.715 13.965a1146.56 1146.56 0 0 1-7.91 8.66 541.99 541.99 0 0 0-10.566 11.816c-2.24 2.549-4.523 5.053-6.809 7.559a615.583 615.583 0 0 0-10.164 11.418c-2.202 2.497-4.457 4.943-6.711 7.394a223.767 223.767 0 0 0-9.437 11c-4.075 5.056-8.44 9.77-12.888 14.494-4.042 4.316-7.796 8.799-11.491 13.417-2.662 3.201-5.464 6.24-8.309 9.277-4.48 4.783-8.685 9.708-12.79 14.82-2.32 2.813-4.74 5.498-7.21 8.18-4.114 4.47-7.97 9.09-11.785 13.816-2.171 2.631-4.417 5.163-6.715 7.684-3.822 4.197-7.415 8.537-10.984 12.95-2.945 3.57-5.973 7.062-9.016 10.55a562.964 562.964 0 0 0-13.191 15.691c-2.722 3.312-5.51 6.562-8.309 9.809a675.858 675.858 0 0 0-12.719 15.219c-2.58 3.145-5.207 6.246-7.843 9.343a511.862 511.862 0 0 0-11.356 13.86c-2.413 2.988-4.9 5.908-7.394 8.828a386.61 386.61 0 0 0-11 13.5 678.45 678.45 0 0 1-12.563 15.625l-1.786 2.16-1.788 2.164c-7.915 9.576-15.74 19.218-23.385 29.01-3.52 4.498-7.115 8.931-10.728 13.354a676.194 676.194 0 0 0-13.91 17.66c-2.788 3.636-5.656 7.207-8.528 10.777a820.036 820.036 0 0 0-12.281 15.656c-3.041 3.974-6.121 7.915-9.219 11.844a1748.406 1748.406 0 0 0-14.266 18.391c-2.075 2.705-4.155 5.407-6.234 8.109l-2.523 3.281a6660.663 6660.663 0 0 1-4.766 6.188c-11.116 14.425-22.15 28.911-33.054 43.497-4.616 6.167-9.287 12.292-13.97 18.409-4.812 6.293-9.545 12.624-14.109 19.1-3.05 4.32-6.204 8.555-9.39 12.775-4.817 6.382-9.524 12.835-14.191 19.327-3.96 5.503-7.967 10.97-11.997 16.423-6.19 8.378-12.302 16.808-18.387 25.262a3307.41 3307.41 0 0 1-4.894 6.77 2484.01 2484.01 0 0 0-20.244 28.372c-1.464 2.08-2.932 4.16-4.4 6.237a5846.633 5846.633 0 0 0-17.857 25.408c-3.785 5.412-7.59 10.81-11.405 16.201a1398.84 1398.84 0 0 0-12.399 17.827c-2.68 3.913-5.379 7.81-8.098 11.696a1559.14 1559.14 0 0 0-22.343 32.789 832.935 832.935 0 0 1-13.16 19.188c-11.337 16.125-22.02 32.7-32.833 49.178-3.802 5.79-7.63 11.563-11.48 17.322-4.352 6.516-8.647 13.068-12.937 19.625l-1.245 1.901a4665.775 4665.775 0 0 0-18.085 27.814c-1.28 1.981-2.562 3.96-3.846 5.937-6.925 10.669-13.76 21.393-20.58 32.13a9164.96 9164.96 0 0 1-5.389 8.468A6648.14 6648.14 0 0 0 1200 1479l-1.846 2.99a6430.706 6430.706 0 0 0-27.923 45.682c-2.536 4.185-5.08 8.367-7.626 12.547a3028.546 3028.546 0 0 0-23.92 39.922c-2.465 4.182-4.944 8.355-7.422 12.53-9.146 15.408-18.218 30.86-27.263 46.329l-1.867 3.191c-17.631 30.142-35.108 60.38-52.128 90.872a1872.439 1872.439 0 0 1-10.942 19.312c-6.812 11.875-13.445 23.848-20.069 35.828l-3.013 5.443c-7.487 13.524-14.927 27.071-22.259 40.681-3.651 6.756-7.414 13.442-11.222 20.11-5.124 8.986-9.959 18.097-14.693 27.293a859.643 859.643 0 0 1-10.87 20.395c-4.603 8.372-9.056 16.813-13.45 25.296a845.52 845.52 0 0 1-10.112 18.829c-6.604 11.989-12.808 24.18-19.046 36.36l-1.145 2.238-1.127 2.2a1253.264 1253.264 0 0 1-8.12 15.577c-6.29 11.876-12.408 23.842-18.551 35.795a4664.963 4664.963 0 0 1-6.532 12.66c-12.865 24.836-25.37 49.85-37.845 74.886-3.305 6.63-6.619 13.256-9.933 19.882l-5.472 10.945a1722668.798 1722668.798 0 0 1-3.487 6.974c-10.04 20.077-20.078 40.155-30.117 60.233-4.138.145-8.275.25-12.416.32-1.405.028-2.81.068-4.215.118-13.168.463-13.168.463-17.834-3.142-2.614-2.532-4.592-5.435-6.458-8.547-1.645-2.672-3.674-4.987-5.702-7.374l-2.164-2.695c-2.32-2.813-4.742-5.498-7.211-8.18-4.114-4.47-7.97-9.09-11.785-13.816-2.171-2.631-4.417-5.163-6.715-7.684a227.993 227.993 0 0 1-8.937-10.438c-3.861-4.773-7.937-9.296-12.094-13.812-3.198-3.562-6.183-7.276-9.188-11-2.348-2.831-4.79-5.544-7.281-8.25-4.114-4.47-7.97-9.09-11.785-13.816-2.171-2.631-4.417-5.163-6.715-7.684a227.993 227.993 0 0 1-8.937-10.438c-3.861-4.773-7.937-9.296-12.094-13.812-3.198-3.562-6.183-7.276-9.188-11-2.348-2.831-4.79-5.544-7.281-8.25-4.114-4.47-7.97-9.09-11.785-13.816-2.171-2.631-4.417-5.163-6.715-7.684a227.993 227.993 0 0 1-8.937-10.438c-3.861-4.773-7.937-9.296-12.094-13.812-3.198-3.562-6.183-7.276-9.188-11-2.348-2.831-4.79-5.544-7.281-8.25-4.094-4.447-7.924-9.047-11.719-13.75-2.348-2.831-4.79-5.544-7.281-8.25-4.114-4.47-7.97-9.09-11.785-13.816-2.171-2.631-4.417-5.163-6.715-7.684a227.993 227.993 0 0 1-8.937-10.438c-3.861-4.773-7.937-9.296-12.094-13.812-3.198-3.562-6.183-7.276-9.188-11-2.348-2.831-4.79-5.544-7.281-8.25-4.114-4.47-7.97-9.09-11.785-13.816-2.171-2.631-4.417-5.163-6.715-7.684a227.993 227.993 0 0 1-8.937-10.438c-3.861-4.773-7.937-9.296-12.094-13.812-3.198-3.562-6.183-7.276-9.188-11-2.348-2.831-4.79-5.544-7.281-8.25-4.094-4.447-7.924-9.047-11.719-13.75-2.348-2.831-4.79-5.544-7.281-8.25-4.114-4.47-7.97-9.09-11.785-13.816-2.171-2.631-4.417-5.163-6.715-7.684a227.993 227.993 0 0 1-8.937-10.438c-3.861-4.773-7.937-9.296-12.094-13.812-3.198-3.562-6.183-7.276-9.188-11-2.348-2.831-4.79-5.544-7.281-8.25-4.114-4.47-7.97-9.09-11.785-13.816-2.171-2.631-4.417-5.163-6.715-7.684a227.993 227.993 0 0 1-8.937-10.438c-3.861-4.773-7.937-9.296-12.094-13.812-3.198-3.562-6.183-7.276-9.188-11-2.348-2.831-4.79-5.544-7.281-8.25-4.094-4.447-7.924-9.047-11.719-13.75-2.348-2.831-4.79-5.544-7.281-8.25-4.114-4.47-7.97-9.09-11.785-13.816-2.171-2.631-4.417-5.163-6.715-7.684a227.993 227.993 0 0 1-8.937-10.438c-3.861-4.773-7.937-9.296-12.094-13.812-3.198-3.562-6.183-7.276-9.188-11-2.348-2.831-4.79-5.544-7.281-8.25-4.114-4.47-7.97-9.09-11.785-13.816-2.171-2.631-4.417-5.163-6.715-7.684a227.993 227.993 0 0 1-8.937-10.438c-3.861-4.773-7.937-9.296-12.094-13.812-3.198-3.562-6.183-7.276-9.188-11-2.348-2.831-4.79-5.544-7.281-8.25-4.094-4.447-7.924-9.047-11.719-13.75-2.348-2.831-4.79-5.544-7.281-8.25-4.114-4.47-7.97-9.09-11.785-13.816-2.171-2.631-4.417-5.163-6.715-7.684a227.993 227.993 0 0 1-8.937-10.438c-3.861-4.773-7.937-9.296-12.094-13.812-3.198-3.562-6.183-7.276-9.188-11-2.348-2.831-4.79-5.544-7.281-8.25-4.114-4.47-7.97-9.09-11.785-13.816-2.171-2.631-4.417-5.163-6.715-7.684a227.993 227.993 0 0 1-8.937-10.438c-3.861-4.773-7.937-9.296-12.094-13.812-3.198-3.562-6.183-7.276-9.188-11-2.348-2.831-4.79-5.544-7.281-8.25-4.094-4.447-7.924-9.047-11.719-13.75-2.348-2.831-4.79-5.544-7.281-8.25-4.897-5.323-9.461-10.872-14-16.5a1141.003 1141.003 0 0 0-5-6c1.47-3.245 3.314-5.806 5.563-8.563l2.18-2.683L16 1333l2.07-2.535a4325.74 4325.74 0 0 1 4.344-5.305c5.218-6.368 10.397-12.768 15.586-19.16 3.716 1.402 7.12 3.084 10.586 5.02l3.284 1.828 3.505 1.965 3.646 2.034a5506.996 5506.996 0 0 1 31.168 17.56c4.768 2.702 9.54 5.397 14.311 8.093l5.75 3.25 2.875 1.625 103.5 58.5 5.754 3.252c4.768 2.695 9.535 5.39 14.3 8.088a6444.38 6444.38 0 0 0 29.946 16.848 2637.554 2637.554 0 0 1 25.422 14.398A2182.04 2182.04 0 0 0 312.5 1460a2569.728 2569.728 0 0 1 25.547 14.46c6.793 3.892 13.618 7.723 20.453 11.54a2569.728 2569.728 0 0 1 25.547 14.46c6.793 3.892 13.618 7.723 20.453 11.54a2569.728 2569.728 0 0 1 25.547 14.46c6.793 3.892 13.618 7.723 20.453 11.54a2569.728 2569.728 0 0 1 25.547 14.46c6.793 3.892 13.618 7.723 20.453 11.54a2569.728 2569.728 0 0 1 25.547 14.46c6.793 3.892 13.618 7.723 20.453 11.54a2569.728 2569.728 0 0 1 25.547 14.46c6.793 3.892 13.618 7.723 20.453 11.54 8.534 4.766 17.038 9.58 25.516 14.443 8.152 4.669 16.347 9.258 24.548 13.838l3.022 1.688 2.847 1.578c1.585.897 3.157 1.82 4.705 2.781 3.202 2.112 3.202 2.112 6.891 2.467 2.382-.96 3.104-1.862 4.53-3.979l1.398-2.033 1.48-2.22c1.072-1.564 2.145-3.126 3.22-4.688l1.671-2.45c2.642-3.832 5.374-7.597 8.11-11.362l3.28-4.532 1.645-2.27c1.622-2.24 3.24-4.485 4.856-6.73a2520.359 2520.359 0 0 1 18.552-25.427c3.928-5.32 7.809-10.671 11.667-16.042 5.211-7.247 10.537-14.403 15.908-21.533a1654.934 1654.934 0 0 0 12.592-16.966c5.605-7.64 11.328-15.185 17.088-22.71 4.512-5.905 8.954-11.859 13.349-17.853a873.645 873.645 0 0 1 13.879-18.445c3.547-4.58 7.05-9.195 10.559-13.805l4.167-5.473 2.057-2.7c7.933-10.414 15.897-20.802 23.944-31.129A2259.5 2259.5 0 0 0 840 1407.5c9.475-12.338 19.054-24.596 28.678-36.819 1.344-1.708 2.685-3.419 4.025-5.13a2227.403 2227.403 0 0 1 15.818-19.947c3.334-4.16 6.634-8.343 9.917-12.542 4.505-5.759 9.104-11.438 13.728-17.103a758.743 758.743 0 0 0 10.272-12.897c4.751-6.092 9.646-12.06 14.57-18.013a927.47 927.47 0 0 0 11.156-13.752c2.738-3.426 5.524-6.812 8.305-10.203 2.37-2.896 4.729-5.8 7.085-8.706 9.788-12.067 19.615-24.099 29.687-35.93a346.647 346.647 0 0 0 7.697-9.396c3.734-4.713 7.64-9.264 11.567-13.817 3.817-4.433 7.537-8.936 11.225-13.475 3.896-4.754 7.883-9.43 11.863-14.113 2.306-2.716 4.606-5.437 6.907-8.157l2.754-3.254c1.821-2.153 3.642-4.306 5.46-6.46a3554.301 3554.301 0 0 1 18.77-22.02c2.007-2.338 4.013-4.678 6.018-7.018l4.502-5.252c1.988-2.32 3.975-4.64 5.96-6.96 19.386-22.652 19.386-22.652 26.786-30.786 2.97-3.271 5.793-6.62 8.563-10.063 4.412-5.456 9.132-10.573 13.914-15.703 4.27-4.581 8.357-9.312 12.406-14.09 5.803-6.832 11.724-13.512 17.853-20.056a366.214 366.214 0 0 0 9.85-10.924c3.497-4.022 7.093-7.958 10.664-11.914l4.5-5 2.258-2.508c1.475-1.64 2.949-3.28 4.422-4.922a1700.235 1700.235 0 0 1 13.88-15.256 344.093 344.093 0 0 0 7.253-8.126c4.017-4.637 8.238-9.083 12.432-13.558A609.872 609.872 0 0 0 1240.5 933c4.31-4.821 8.72-9.543 13.139-14.264 3.783-4.042 7.55-8.1 11.299-12.173 6.324-6.867 12.712-13.671 19.104-20.475 2.003-2.136 4.002-4.276 6.001-6.416l2.009-2.15c1.255-1.342 2.509-2.686 3.762-4.031 3.46-3.7 6.982-7.318 10.596-10.867 1.653-1.689 3.189-3.445 4.715-5.249 3.77-4.383 7.86-8.418 11.993-12.456 2.87-2.825 5.6-5.707 8.226-8.763 4.7-5.44 9.86-10.407 14.984-15.445l2.297-2.274 2.04-2.003c1.936-2.018 3.764-4.07 5.589-6.188 3.83-4.406 7.908-8.518 12.059-12.621l2.34-2.33c3.27-3.254 6.547-6.502 9.823-9.75a7600.94 7600.94 0 0 0 7.212-7.17l2.21-2.185c3.23-3.215 6.37-6.449 9.33-9.914 5.16-5.983 10.836-11.483 16.424-17.061l3.68-3.682c2.559-2.561 5.12-5.12 7.682-7.678 3.266-3.26 6.527-6.524 9.787-9.79a8738.98 8738.98 0 0 1 7.59-7.59 4076.74 4076.74 0 0 0 3.606-3.608c5.594-5.603 11.182-11.148 17.206-16.293 3.251-2.848 6.262-5.937 9.297-9.011l2.06-2.073c2.15-2.16 4.295-4.325 6.44-6.49 2.83-2.857 5.664-5.71 8.5-8.563l1.92-1.945c3.793-3.813 7.714-7.407 11.786-10.922 2.168-1.897 4.212-3.89 6.232-5.945l2.273-2.297L1516 651c4.897-4.98 9.831-9.799 15.129-14.352 2.93-2.58 5.644-5.357 8.371-8.148 4.07-4.122 8.19-8.077 12.61-11.828 3.032-2.682 5.825-5.6 8.667-8.48 2.65-2.613 5.435-5.025 8.258-7.446 2.699-2.398 5.208-4.962 7.715-7.558 1.944-1.89 3.93-3.67 5.977-5.446 4.327-3.758 8.492-7.67 12.648-11.617 5.284-4.997 10.6-9.944 16.031-14.781 3.446-3.114 6.83-6.292 10.219-9.469 4.367-4.092 8.752-8.136 13.29-12.04 2.909-2.56 5.743-5.2 8.585-7.835 4.106-3.807 8.241-7.563 12.477-11.227 2.538-2.224 5.03-4.498 7.523-6.773 3.79-3.456 7.61-6.868 11.484-10.23 2.302-2.021 4.564-4.083 6.829-6.145 3.42-3.091 6.907-6.05 10.5-8.938 4.813-3.89 9.335-8.016 13.848-12.243 4.213-3.923 8.603-7.563 13.093-11.167 3.01-2.495 5.885-5.115 8.746-7.777 4.632-4.31 9.421-8.35 14.352-12.32 2.62-2.158 5.14-4.393 7.648-6.68 4.197-3.822 8.537-7.415 12.95-10.984 3.57-2.945 7.062-5.973 10.55-9.016a569.526 569.526 0 0 1 15.758-13.258c3.112-2.545 6.18-5.138 9.242-7.742a907.382 907.382 0 0 1 14.422-11.988A3010.87 3010.87 0 0 0 1824.5 376c33.788-27.838 33.788-27.838 48.656-39.473l3.469-2.714 1.786-1.398c4.536-3.56 9.004-7.197 13.464-10.853 5.95-4.869 12.022-9.535 18.197-14.115a426.095 426.095 0 0 0 13.366-10.385c7.371-5.948 14.881-11.703 22.422-17.434 2.776-2.112 5.546-4.232 8.316-6.353 2.103-1.61 4.208-3.218 6.312-4.826 3.21-2.451 6.414-4.908 9.617-7.367 9.057-6.94 18.162-13.785 27.438-20.43A725.164 725.164 0 0 0 2012 230c7.822-5.901 15.756-11.638 23.713-17.354 2.28-1.641 4.556-3.287 6.83-4.935 9.41-6.818 18.87-13.56 28.374-20.245a2752.3 2752.3 0 0 0 6.118-4.321c47.613-33.711 96.076-66.296 145.369-97.501 2.487-1.575 4.973-3.152 7.46-4.73a2768.696 2768.696 0 0 1 88.666-53.892c4.445-2.59 8.885-5.187 13.325-7.785a3537.88 3537.88 0 0 1 8.907-5.178 486.271 486.271 0 0 0 9.695-5.774l1.979-1.191c1.658-1 3.307-2.015 4.955-3.032C2360 3 2360 3 2361.99 3.716Zm-203.24 186.347c-5.63 4.173-11.387 8.131-17.187 12.063a2097.321 2097.321 0 0 0-29.229 20.231 6486.617 6486.617 0 0 1-6.729 4.73c-9.504 6.682-18.936 13.46-28.343 20.277-2.241 1.622-4.486 3.24-6.73 4.856a3009.242 3009.242 0 0 0-30.132 22.01 2944.38 2944.38 0 0 1-7.224 5.31 1599.851 1599.851 0 0 0-28.894 21.71c-4.252 3.262-8.518 6.505-12.782 9.751l-10.5 8-2.298 1.751A3438.654 3438.654 0 0 0 1946 346l-1.91 1.492a2186.465 2186.465 0 0 0-21.476 17.021c-4.267 3.42-8.558 6.805-12.864 10.175-4.978 3.899-9.9 7.858-14.785 11.875a2882.434 2882.434 0 0 1-10.777 8.812l-2.07 1.685a801.74 801.74 0 0 1-13.243 10.502c-5.413 4.216-10.647 8.607-15.834 13.096-4.357 3.77-8.79 7.433-13.264 11.065a684.39 684.39 0 0 0-9.277 7.777 691.75 691.75 0 0 1-11.937 9.938c-4.861 3.955-9.617 8.022-14.363 12.114a473.472 473.472 0 0 1-10.95 9.135c-4.377 3.552-8.558 7.271-12.723 11.067-2.597 2.308-5.261 4.502-7.964 6.683-4.777 3.864-9.302 7.942-13.82 12.102-2.643 2.371-5.35 4.614-8.118 6.836-5.439 4.388-10.532 9.09-15.64 13.852-4.582 4.27-9.313 8.357-14.09 12.406-6.833 5.803-13.513 11.724-20.057 17.853a369.531 369.531 0 0 1-10.932 9.858c-6.594 5.729-13.012 11.66-19.444 17.57-3.138 2.88-6.292 5.741-9.462 8.586-5.192 4.661-10.334 9.377-15.472 14.097-1.5 1.377-3 2.751-4.5 4.126-17.096 15.651-34.045 31.457-50.943 47.32-2.16 2.027-4.324 4.05-6.487 6.074-7.124 6.672-14.197 13.363-21.008 20.356a132.852 132.852 0 0 1-6.305 5.742c-4.836 4.192-9.298 8.726-13.785 13.285a2207.674 2207.674 0 0 1-4.844 4.906l-2.13 2.166a146.861 146.861 0 0 1-6.184 5.586c-5.061 4.398-9.75 9.144-14.467 13.904l-2.868 2.88A8392.023 8392.023 0 0 0 1503 737a8678.162 8678.162 0 0 1-10.456 10.512c-1.38 1.387-2.757 2.776-4.134 4.166-4.368 4.385-8.796 8.6-13.49 12.632-3.441 3.03-6.657 6.285-9.893 9.53l-2.202 2.2c-1.525 1.523-3.048 3.049-4.57 4.575a3869.368 3869.368 0 0 1-6.944 6.938l-4.471 4.474-2.068 2.062c-3.194 3.21-6.286 6.456-9.242 9.886-3.75 4.34-7.766 8.37-11.842 12.4l-2.342 2.33c-3.27 3.254-6.546 6.502-9.822 9.75a7600.927 7600.927 0 0 0-7.211 7.17l-2.21 2.185a220.857 220.857 0 0 0-11.55 12.413c-1.959 2.241-4.025 4.346-6.147 6.433l-2.433 2.41-4.946 4.868c-4.302 4.26-8.42 8.587-12.365 13.181-2.741 3.109-5.702 5.987-8.662 8.885-4.256 4.207-8.364 8.44-12.23 13.012-2.767 3.109-5.756 5.994-8.717 8.916-3.294 3.266-6.368 6.651-9.377 10.177-2.441 2.76-5.079 5.307-7.703 7.891-2.546 2.586-4.893 5.32-7.258 8.07-2.186 2.465-4.52 4.752-6.87 7.058-1.784 1.814-3.452 3.682-5.11 5.61-3.566 4.1-7.253 8.068-10.985 12.016A1777.932 1777.932 0 0 0 1269 979c-1.832 2.001-3.666 4-5.5 6l-2.742 2.992a7175.96 7175.96 0 0 1-5.578 6.078 1895.811 1895.811 0 0 0-14.86 16.36 1249.72 1249.72 0 0 1-7.945 8.695 542.117 542.117 0 0 0-10.566 11.816c-2.24 2.549-4.523 5.053-6.809 7.559a642.735 642.735 0 0 0-10.223 11.473 651.599 651.599 0 0 1-6.277 7.027 798.165 798.165 0 0 0-9.695 10.95c-2.035 2.31-4.107 4.585-6.18 6.862a237.286 237.286 0 0 0-8.937 10.5c-3.89 4.814-8.017 9.336-12.244 13.85-3.923 4.212-7.563 8.602-11.167 13.092-2.495 3.01-5.115 5.885-7.777 8.746-4.29 4.61-8.304 9.378-12.254 14.285-2.334 2.822-4.766 5.52-7.246 8.215-4.114 4.47-7.97 9.09-11.785 13.816-2.171 2.631-4.417 5.163-6.715 7.684-3.844 4.223-7.465 8.586-11.059 13.023-2.726 3.325-5.512 6.593-8.316 9.852a2586.958 2586.958 0 0 0-15.757 18.507c-1.393 1.647-2.788 3.291-4.184 4.934a1095.417 1095.417 0 0 0-14.88 17.883c-2.524 3.069-5.099 6.091-7.679 9.113a370.012 370.012 0 0 0-11 13.563c-4.404 5.682-9.042 11.114-13.784 16.515-4.109 4.703-7.995 9.543-11.818 14.481-3.078 3.964-6.258 7.818-9.523 11.629-4.19 4.896-8.208 9.9-12.164 14.988-3.698 4.74-7.501 9.384-11.336 14.012a746.523 746.523 0 0 0-13.887 17.262c-3.482 4.459-7.036 8.855-10.613 13.238a1220.771 1220.771 0 0 0-16.157 20.282c-2.275 2.91-4.56 5.814-6.843 8.718l-2.75 3.5-6.874 8.749-2.758 3.51a10037.37 10037.37 0 0 1-6.763 8.6 5264.856 5264.856 0 0 0-20.54 26.305 9635.847 9635.847 0 0 1-5.467 7.027A4211.964 4211.964 0 0 0 860 1467l-1.43 1.867c-7.152 9.338-14.287 18.69-21.412 28.049-3.408 4.477-6.82 8.951-10.24 13.42-6.96 9.101-13.852 18.245-20.62 27.49-4.443 6.052-8.982 12.027-13.548 17.986-4.835 6.314-9.59 12.663-14.172 19.163-3.05 4.32-6.204 8.555-9.39 12.775-4.817 6.382-9.524 12.835-14.191 19.327-3.96 5.503-7.967 10.97-11.997 16.423-6.19 8.38-12.305 16.811-18.391 25.266-2.158 2.996-4.32 5.989-6.482 8.981l-3.254 4.508a5013.457 5013.457 0 0 1-8.088 11.175 1556.425 1556.425 0 0 0-16.91 23.757A7269.835 7269.835 0 0 1 683 1707l-1.637 2.34a907.263 907.263 0 0 1-4.55 6.41l-1.35 1.934c-1.08 1.495-2.264 2.915-3.463 4.316-3.288 0-4.24-.509-7.008-2.133l-2.451-1.422-2.666-1.57a5715.887 5715.887 0 0 0-5.727-3.32l-3.044-1.767c-5.173-2.98-10.39-5.882-15.604-8.788a2547.508 2547.508 0 0 1-25.547-14.46A2184.197 2184.197 0 0 0 589.5 1677a2530.388 2530.388 0 0 1-25.553-14.465c-6.726-3.853-13.489-7.637-20.26-11.41a1253.398 1253.398 0 0 1-24.874-14.25 831.034 831.034 0 0 0-25.608-14.416c-15.772-8.537-31.302-17.509-46.865-26.418-10.405-5.955-20.854-11.828-31.32-17.674-8.745-4.886-17.46-9.823-26.177-14.758-4.78-2.705-9.562-5.407-14.343-8.109l-5.75-3.25-2.875-1.625-34.5-19.5-5.754-3.252c-4.768-2.695-9.535-5.39-14.3-8.088a6452.715 6452.715 0 0 0-29.946-16.848c-8.548-4.779-17.07-9.601-25.567-14.47-9.278-5.316-18.59-10.57-27.9-15.826-4.804-2.711-9.606-5.426-14.408-8.141l-5.75-3.25-11.5-6.5-2.878-1.627-5.718-3.233c-4.952-2.8-9.905-5.595-14.861-8.386l-3.098-1.746c-1.935-1.091-3.871-2.181-5.808-3.27a351.039 351.039 0 0 1-15.88-9.486L146 1426l-2 1a590867.423 590867.423 0 0 0 7.463 8.611c2.956 3.412 5.914 6.823 8.873 10.233 7.75 8.931 15.456 17.9 23.143 26.885a4014.862 4014.862 0 0 0 18.665 21.665c4.132 4.763 8.238 9.546 12.336 14.336 3.657 4.271 7.334 8.524 11.02 12.77a2983.774 2983.774 0 0 1 13.98 16.23c3.657 4.271 7.334 8.524 11.02 12.77a2983.774 2983.774 0 0 1 13.98 16.23c3.657 4.271 7.334 8.524 11.02 12.77a2983.774 2983.774 0 0 1 13.98 16.23c3.657 4.271 7.334 8.524 11.02 12.77a2983.774 2983.774 0 0 1 13.98 16.23c3.657 4.271 7.334 8.524 11.02 12.77a2983.774 2983.774 0 0 1 13.98 16.23c3.657 4.271 7.334 8.524 11.02 12.77a2983.774 2983.774 0 0 1 13.98 16.23c3.657 4.271 7.334 8.524 11.02 12.77a2983.774 2983.774 0 0 1 13.98 16.23c3.657 4.271 7.334 8.524 11.02 12.77a2983.774 2983.774 0 0 1 13.98 16.23c3.657 4.271 7.334 8.524 11.02 12.77 6.695 7.714 13.34 15.468 19.98 23.23a4014.862 4014.862 0 0 0 18.664 21.664c4.132 4.763 8.238 9.546 12.336 14.336 3.657 4.271 7.334 8.524 11.02 12.77a2983.774 2983.774 0 0 1 13.98 16.23c3.657 4.271 7.334 8.524 11.02 12.77a2983.774 2983.774 0 0 1 13.98 16.23c3.657 4.271 7.334 8.524 11.02 12.77a2983.774 2983.774 0 0 1 13.98 16.23c3.657 4.271 7.334 8.524 11.02 12.77a2983.774 2983.774 0 0 1 13.98 16.23c3.657 4.271 7.334 8.524 11.02 12.77a2983.774 2983.774 0 0 1 13.98 16.23c3.657 4.271 7.334 8.524 11.02 12.77a2983.774 2983.774 0 0 1 13.98 16.23c3.657 4.271 7.334 8.524 11.02 12.77a2983.774 2983.774 0 0 1 13.98 16.23c3.657 4.271 7.334 8.524 11.02 12.77 6.695 7.714 13.34 15.468 19.98 23.23a4014.862 4014.862 0 0 0 18.664 21.664c4.132 4.763 8.238 9.546 12.336 14.336 3.657 4.271 7.334 8.524 11.02 12.77a2983.774 2983.774 0 0 1 13.98 16.23c4.192 4.896 8.412 9.765 12.636 14.632A3654.432 3654.432 0 0 1 768 2151c3.254-2.719 4.839-6.284 6.67-10.016l1.076-2.155c1.175-2.357 2.341-4.718 3.508-7.079l2.471-4.962c2.176-4.37 4.346-8.743 6.513-13.117 3.443-6.943 6.894-13.882 10.347-20.82a5158.78 5158.78 0 0 0 3.565-7.188c4.358-8.783 8.823-17.5 13.418-26.161 3.77-7.106 7.368-14.292 10.932-21.502a1093.043 1093.043 0 0 1 13.622-26.637c4.709-8.912 9.294-17.886 13.878-26.863a2693.877 2693.877 0 0 1 27.313-52.125 1895.01 1895.01 0 0 0 14.375-27.25 1125.3 1125.3 0 0 1 13.514-25.328c4.12-7.508 8.131-15.072 12.131-22.645 5.773-10.924 11.643-21.768 17.784-32.492 4.45-7.806 8.679-15.72 12.883-23.66 5.219-9.851 10.542-19.624 16.066-29.309 4.384-7.69 8.67-15.434 12.934-23.191a2491.693 2491.693 0 0 1 16.21-29.041c3.346-5.898 6.664-11.81 9.965-17.735a1597.43 1597.43 0 0 1 17.439-30.5c4.137-7.059 8.209-14.153 12.254-21.265a1885.857 1885.857 0 0 1 19.204-32.957 1591.777 1591.777 0 0 0 13.366-22.94c5.525-9.634 11.219-19.154 17.01-28.63 5.45-8.92 10.788-17.9 16.052-26.932 7.68-13.17 15.553-26.213 23.5-39.222 1.912-3.133 3.818-6.27 5.723-9.407a3554.451 3554.451 0 0 1 18.24-29.743 4407.1 4407.1 0 0 0 11.035-17.89 2558.686 2558.686 0 0 1 20.575-32.989c1.945-3.065 3.88-6.135 5.816-9.206a8177.512 8177.512 0 0 1 19.816-31.223c1.804-2.835 3.607-5.67 5.408-8.507 6.619-10.419 13.267-20.816 19.992-31.166 1.457-2.242 2.912-4.486 4.368-6.729 3.337-5.143 6.68-10.281 10.027-15.418l1.769-2.715c20.09-30.826 40.224-61.629 60.99-92.003 3.643-5.335 7.264-10.684 10.887-16.031 11.092-16.364 22.242-32.684 33.545-48.903 3.874-5.56 7.73-11.132 11.559-16.723 5.172-7.546 10.445-15.02 15.734-22.484 2.009-2.837 4.014-5.677 6.018-8.518l4.502-6.377c1.99-2.818 3.976-5.639 5.96-8.46a2535.737 2535.737 0 0 1 20.382-28.502c2.783-3.843 5.563-7.688 8.342-11.534l1.65-2.283c2.818-3.902 5.624-7.812 8.412-11.735 4.88-6.865 9.861-13.653 14.87-20.425a1504.796 1504.796 0 0 0 11.818-16.245c5.211-7.247 10.537-14.403 15.908-21.533a1656.687 1656.687 0 0 0 12.592-16.966c5.658-7.71 11.426-15.332 17.235-22.929 4.032-5.274 8.04-10.566 12.015-15.884 8.7-11.637 17.568-23.148 26.433-34.66 1.577-2.048 3.153-4.098 4.727-6.149 6.572-8.56 13.194-17.078 19.824-25.593 1.818-2.335 3.634-4.671 5.45-7.008 9.56-12.305 19.15-24.583 28.9-36.737a1322.86 1322.86 0 0 0 9.916-12.54c4.505-5.76 9.104-11.44 13.728-17.104a759.755 759.755 0 0 0 10.272-12.896c5.221-6.691 10.614-13.234 16.023-19.774 3.37-4.077 6.709-8.179 10.039-12.289 6.2-7.647 12.455-15.248 18.72-22.841a4307.12 4307.12 0 0 0 5.39-6.554A1907.88 1907.88 0 0 1 1712 677c5.193-6.108 10.381-12.215 15.438-18.438 4.415-5.422 8.962-10.723 13.523-16.023 2.865-3.33 5.706-6.681 8.539-10.039a2984.822 2984.822 0 0 1 15.984-18.734c2.008-2.339 4.013-4.679 6.019-7.02l2.99-3.487c2.541-2.963 5.08-5.93 7.612-8.9 4.47-5.237 8.948-10.453 13.583-15.547a219.361 219.361 0 0 0 8.625-10.125c3.892-4.815 8.02-9.34 12.25-13.855a176.084 176.084 0 0 0 8.812-10.207c4.827-6.017 10.108-11.57 15.395-17.18a291.696 291.696 0 0 0 8.601-9.566c4.239-4.89 8.62-9.655 12.957-14.457 3.356-3.722 6.704-7.446 9.985-11.235 3.627-4.166 7.383-8.21 11.137-12.262 4.566-4.931 9.068-9.917 13.55-14.925 6.418-7.17 12.914-14.265 19.452-21.327 2.518-2.722 5.033-5.448 7.548-8.173l3.008-3.258c1.975-2.14 3.949-4.28 5.922-6.422 6.464-7.014 12.958-14 19.472-20.968a3434.35 3434.35 0 0 0 7.352-7.891l1.87-2.01c1.166-1.254 2.33-2.51 3.495-3.765 2.81-3.02 5.66-5.983 8.588-8.89 2.289-2.272 4.474-4.568 6.543-7.046 3.742-4.348 7.805-8.34 11.906-12.344 2.171-2.165 4.187-4.427 6.188-6.75 4.311-4.98 8.996-9.547 13.695-14.156 3.185-3.148 6.275-6.31 9.18-9.719 5.6-6.501 11.855-12.41 17.956-18.436 1.642-1.623 3.28-3.25 4.919-4.876l1.48-1.456a131.862 131.862 0 0 0 7.477-8.063c4.48-5.137 9.291-9.924 14.12-14.734l3.022-3.023a8571.85 8571.85 0 0 1 8.15-8.138c2.855-2.848 5.706-5.699 8.558-8.55 5.396-5.393 10.795-10.783 16.195-16.173 6.13-6.12 12.258-12.242 18.386-18.364 10.477-10.469 20.956-20.935 31.437-31.398 4.029-4.022 8.057-8.044 12.081-12.07-2.872 0-3.96 1.323-6.25 3.063Z"/></svg>