<svg xmlns="http://www.w3.org/2000/svg" xml:space="preserve" width="816" height="1056" fill-rule="evenodd" stroke-linejoin="round" stroke-width="28.222" preserveAspectRatio="xMidYMid" version="1.2" viewBox="0 0 21590 27940">
  <defs class="ClipPathGroup">
    <clipPath id="a" clipPathUnits="userSpaceOnUse">
      <path d="M0 0h21590v27940H0z"/>
    </clipPath>
  </defs>
  <g class="SlideGroup">
    <g class="Slide" clip-path="url(#a)">
      <g class="Page">
        <g class="com.sun.star.drawing.CustomShape">
          <path fill="none" d="M8857 14037h3972v4606H8857z" class="BoundingBox"/>
          <path fill="#F10D0C" d="M9889 14117v3333h-952l1905 1112 1906-1112h-953v-3333H9889Z"/>
          <path fill="none" stroke="#000" stroke-width="159" d="M9889 14117v3333h-952l1905 1112 1906-1112h-953v-3333H9889Z"/>
        </g>
        <g class="com.sun.star.drawing.CustomShape">
          <path fill="none" d="M7381 6000h6828v7781H7381z" class="BoundingBox"/>
          <path fill="#AFD095" fill-opacity=".871" d="M10795 13700H7461V6080h6667v7620h-3333Z"/>
          <path fill="none" stroke="#000" stroke-width="159" d="M10795 13700H7461V6080h6667v7620h-3333Z"/>
        </g>
        <g class="com.sun.star.drawing.CustomShape">
          <path fill="none" d="M8539 6617h4607v6512H8539z" class="BoundingBox"/>
          <path fill="#729FCF" d="m8619 7961 2223-1264 2223 1264h-1112v3822h1112l-2223 1265-2223-1265h1111V7961H8619Z"/>
          <path fill="none" stroke="#000" stroke-width="159" d="m8619 7961 2223-1264 2223 1264h-1112v3822h1112l-2223 1265-2223-1265h1111V7961H8619Z"/>
        </g>
      </g>
    </g>
  </g>
</svg>
