<svg xmlns="http://www.w3.org/2000/svg" xml:space="preserve" width="816" height="1056" fill-rule="evenodd" stroke-linejoin="round" stroke-width="28.222" preserveAspectRatio="xMidYMid" version="1.2" viewBox="0 0 21590 27940"><defs class="ClipPathGroup"><clipPath id="a" clipPathUnits="userSpaceOnUse"><path d="M0 0h21590v27940H0z"/></clipPath></defs><g class="SlideGroup"><g class="Slide" clip-path="url(#a)"><g class="Page"><g class="com.sun.star.drawing.CustomShape"><path fill="none" d="M8745 21876h3972v4606H8745z" class="BoundingBox"/><path fill="#F10D0C" d="M9777 21956v3333h-952l1905 1112 1906-1112h-953v-3333H9777Z"/><path fill="none" stroke="#000" stroke-width="159" d="M9777 21956v3333h-952l1905 1112 1906-1112h-953v-3333H9777Z"/></g><g class="com.sun.star.drawing.CustomShape"><path fill="none" d="M7269 13839h6828v7781H7269z" class="BoundingBox"/><path fill="#AFD095" fill-opacity=".871" d="M10683 21539H7349v-7620h6667v7620h-3333Z"/><path fill="none" stroke="#000" stroke-width="159" d="M10683 21539H7349v-7620h6667v7620h-3333Z"/></g><g class="com.sun.star.drawing.CustomShape"><path fill="none" d="M8427 14456h4607v6512H8427z" class="BoundingBox"/><path fill="#3465A4" d="m8507 15800 2223-1264 2223 1264h-1112v3822h1112l-2223 1265-2223-1265h1111v-3822H8507Z"/><path fill="none" stroke="#000" stroke-width="159" d="m8507 15800 2223-1264 2223 1264h-1112v3822h1112l-2223 1265-2223-1265h1111v-3822H8507Z"/></g></g></g></g></svg>