<svg xmlns="http://www.w3.org/2000/svg" xml:space="preserve" width="816" height="1056" fill-rule="evenodd" stroke-linejoin="round" stroke-width="28.222" preserveAspectRatio="xMidYMid" version="1.2" viewBox="0 0 21590 27940"><defs class="ClipPathGroup"><clipPath id="a" clipPathUnits="userSpaceOnUse"><path d="M0 0h21590v27940H0z"/></clipPath></defs><g class="SlideGroup"><g class="Slide" clip-path="url(#a)"><g class="Page"><g class="com.sun.star.drawing.CustomShape"><path fill="none" d="M8857 21838h3972v4606H8857z" class="BoundingBox"/><path fill="#F10D0C" d="M9889 21918v3333h-952l1905 1112 1906-1112h-953v-3333H9889Z"/><path fill="none" stroke="#000" stroke-width="159" d="M9889 21918v3333h-952l1905 1112 1906-1112h-953v-3333H9889Z"/></g><g class="com.sun.star.drawing.CustomShape"><path fill="none" d="M5317 15170h10956v6193H5317z" class="BoundingBox"/><path fill="#77BC65" fill-opacity=".529" d="M10795 21282H5397v-6032h10795v6032h-5397Z"/><path fill="none" stroke="#000" stroke-width="159" d="M10795 21282H5397v-6032h10795v6032h-5397Z"/></g><g class="com.sun.star.drawing.CustomShape"><path fill="none" d="M5365 16440h6193v4924H5365z" class="BoundingBox"/><path fill="#FF5429" d="m5445 16520 6032 4763H5445v-4763Z"/><path fill="none" stroke="#000" stroke-width="159" d="m5445 16520 6032 4763H5445v-4763Z"/></g><g class="com.sun.star.drawing.CustomShape"><path fill="none" d="M13301 15486h1114v3336h-1114z" class="BoundingBox"/><path fill="#F10D0C" d="M13858 18741h-477v-3175h953v3175h-476Z"/><path fill="none" stroke="#000" stroke-width="159" d="M13858 18741h-477v-3175h953v3175h-476Z"/></g><g class="com.sun.star.drawing.CustomShape"><path fill="none" d="M13301 19298h1115v1114h-1115z" class="BoundingBox"/><path fill="#F10D0C" d="M14335 19855c0 83-22 165-64 238-42 72-102 132-174 174-73 42-155 64-239 64s-166-22-238-64c-73-42-133-102-175-174-42-73-64-155-64-238 0-84 22-166 64-239 42-72 102-132 175-174 72-42 154-64 238-64s166 22 239 64c72 42 132 102 174 174 42 73 64 155 64 239Z"/><path fill="none" stroke="#000" stroke-width="159" d="M14335 19855c0 83-22 165-64 238-42 72-102 132-174 174-73 42-155 64-239 64s-166-22-238-64c-73-42-133-102-175-174-42-73-64-155-64-238 0-84 22-166 64-239 42-72 102-132 175-174 72-42 154-64 238-64s166 22 239 64c72 42 132 102 174 174 42 73 64 155 64 239Z"/></g></g></g></g></svg>