<svg xmlns="http://www.w3.org/2000/svg" xml:space="preserve" width="816" height="1056" fill-rule="evenodd" stroke-linejoin="round" stroke-width="28.222" preserveAspectRatio="xMidYMid" version="1.2" viewBox="0 0 21590 27940"><defs class="ClipPathGroup"><clipPath id="a" clipPathUnits="userSpaceOnUse"><path d="M0 0h21590v27940H0Z"/></clipPath></defs><g class="SlideGroup"><g class="Slide" clip-path="url(#a)" transform="matrix(1.89426 0 0 1.63834 -10551.006 -25914.915)"><g class="Page"><g class="com.sun.star.drawing.CustomShape"><path fill="none" d="M9408 21106h4127v5799H9408Z" class="BoundingBox"/><path fill="#3465a4" d="m10789 24981 69-2 68-3 68-8 67-12 67-13 66-17 65-21 64-23 63-26 61-30 60-32 58-34 55-38 54-40 51-41 50-45 47-48 44-49 41-52 40-52 36-55 33-57 29-58 28-59 23-61 21-62 18-61 13-63 10-64 8-64 4-65v-64l-4-65-6-64-10-64-13-63-16-63-21-62-23-61-26-59-29-58-33-57-36-55-38-54-41-52-44-49-47-48-48-45-51-43-54-40-55-38-58-35-58-33-61-30-63-26-64-25-65-21-66-17-67-15-67-12-68-8-68-5-69-2 6-1246 135 4 134 10 133 16 133 23 131 29 130 35 127 41 124 46 123 54 120 57 116 65 112 68 110 75 104 80 101 84 96 88 91 94 86 97 80 102 76 105 69 108 65 112 57 114 52 117 45 120 39 121 33 123 26 124 20 125 12 126 6 127v126l-8 127-14 126-20 125-28 124-33 123-41 120-47 119-52 117-59 114-65 110-71 108-76 105-82 100-86 97-93 92-96 88-102 83-105 79-110 73-114 68-116 63-120 57-123 52-126 45-127 40-130 33-131 29-133 21-133 14-134 10-135 2-4 636-1330-1266 1343-1251z"/><path fill="none" stroke="#000" stroke-width="81" d="m10789 24981 69-2 68-3 68-8 67-12 67-13 66-17 65-21 64-23 63-26 61-30 60-32 58-34 55-38 54-40 51-41 50-45 47-48 44-49 41-52 40-52 36-55 33-57 29-58 28-59 23-61 21-62 18-61 13-63 10-64 8-64 4-65v-64l-4-65-6-64-10-64-13-63-16-63-21-62-23-61-26-59-29-58-33-57-36-55-38-54-41-52-44-49-47-48-48-45-51-43-54-40-55-38-58-35-58-33-61-30-63-26-64-25-65-21-66-17-67-15-67-12-68-8-68-5-69-2 6-1246 135 4 134 10 133 16 133 23 131 29 130 35 127 41 124 46 123 54 120 57 116 65 112 68 110 75 104 80 101 84 96 88 91 94 86 97 80 102 76 105 69 108 65 112 57 114 52 117 45 120 39 121 33 123 26 124 20 125 12 126 6 127v126l-8 127-14 126-20 125-28 124-33 123-41 120-47 119-52 117-59 114-65 110-71 108-76 105-82 100-86 97-93 92-96 88-102 83-105 79-110 73-114 68-116 63-120 57-123 52-126 45-127 40-130 33-131 29-133 21-133 14-134 10-135 2-4 636-1330-1266 1343-1251z"/></g></g></g></g></svg>